<?xml version="1.0" encoding="UTF-8"?>
<svg id="Layer_1" data-name="Layer 1" xmlns="http://www.w3.org/2000/svg" xmlns:xlink="http://www.w3.org/1999/xlink" version="1.1" viewBox="0 0 2160 1080">
  <defs>
    <style>
      .cls-1 {
        fill: url(#linear-gradient-3);
        fill-opacity: .8;
      }

      .cls-1, .cls-2, .cls-3, .cls-4, .cls-5, .cls-6, .cls-7, .cls-8, .cls-9, .cls-10 {
        stroke-width: 0px;
      }

      .cls-2 {
        fill: url(#linear-gradient-8);
        fill-opacity: .2;
      }

      .cls-3 {
        fill: url(#linear-gradient);
      }

      .cls-3, .cls-5 {
        fill-rule: evenodd;
      }

      .cls-4 {
        fill: url(#linear-gradient-6);
        fill-opacity: .4;
      }

      .cls-5 {
        fill: url(#linear-gradient-9);
      }

      .cls-6 {
        fill: url(#linear-gradient-4);
      }

      .cls-7 {
        fill: url(#linear-gradient-2);
      }

      .cls-8 {
        fill: url(#linear-gradient-7);
      }

      .cls-9 {
        fill: url(#linear-gradient-5);
      }

      .cls-10 {
        fill: #fff;
      }
    </style>
    <linearGradient id="linear-gradient" x1="6.9" y1="1059.6" x2="6.9" y2="1066.9" gradientTransform="translate(-99.2 54096.1) scale(50.1 -50.1)" gradientUnits="userSpaceOnUse">
      <stop offset="0" stop-color="#28ac95"/>
      <stop offset=".2" stop-color="#249d88"/>
      <stop offset=".4" stop-color="#1c7f72"/>
      <stop offset=".6" stop-color="#126a62"/>
      <stop offset=".8" stop-color="#095e58"/>
      <stop offset="1" stop-color="#085a55"/>
    </linearGradient>
    <linearGradient id="linear-gradient-2" x1="14.4" y1="1063.4" x2="7.4" y2="1071" gradientTransform="translate(-99.2 54096.1) scale(50.1 -50.1)" gradientUnits="userSpaceOnUse">
      <stop offset="0" stop-color="#b0d68d"/>
      <stop offset=".5" stop-color="#28ab93"/>
      <stop offset=".9" stop-color="#147966"/>
    </linearGradient>
    <linearGradient id="linear-gradient-3" x1="-1.3" y1="1065.6" x2="5.4" y2="1067.9" gradientTransform="translate(-99.2 54096.1) scale(50.1 -50.1)" gradientUnits="userSpaceOnUse">
      <stop offset="0" stop-color="#71d0f2"/>
      <stop offset="1" stop-color="#71d0f2" stop-opacity="0"/>
    </linearGradient>
    <linearGradient id="linear-gradient-4" x1="3.9" y1="1074" x2="21.7" y2="1074" gradientTransform="translate(-99.2 54096.1) scale(50.1 -50.1)" gradientUnits="userSpaceOnUse">
      <stop offset="0" stop-color="#75c9ba"/>
      <stop offset=".9" stop-color="#6dc6af"/>
    </linearGradient>
    <linearGradient id="linear-gradient-5" x1="4.6" y1="1077.8" x2="20.5" y2="1070.4" gradientTransform="translate(-99.2 54096.1) scale(50.1 -50.1)" gradientUnits="userSpaceOnUse">
      <stop offset="0" stop-color="#71d0f2"/>
      <stop offset=".2" stop-color="#7dccc1"/>
      <stop offset=".7" stop-color="#85ccb0"/>
      <stop offset="1" stop-color="#b0d68d"/>
    </linearGradient>
    <linearGradient id="linear-gradient-6" x1="5.5" y1="1075.6" x2="14.2" y2="1073.7" gradientTransform="translate(-99.2 54096.1) scale(50.1 -50.1)" gradientUnits="userSpaceOnUse">
      <stop offset="0" stop-color="#fff" stop-opacity="0"/>
      <stop offset=".5" stop-color="#fff"/>
      <stop offset="1" stop-color="#fff" stop-opacity="0"/>
    </linearGradient>
    <linearGradient id="linear-gradient-7" x1="9.6" y1="1067.6" x2="9.8" y2="1073.7" gradientTransform="translate(-99.2 54096.1) scale(50.1 -50.1)" gradientUnits="userSpaceOnUse">
      <stop offset=".2" stop-color="#093e3c" stop-opacity="0"/>
      <stop offset=".6" stop-color="#093e3c" stop-opacity=".2"/>
      <stop offset=".9" stop-color="#093e3c" stop-opacity=".8"/>
    </linearGradient>
    <linearGradient id="linear-gradient-8" x1="2" y1="1069.3" x2="9.5" y2="1067.9" xlink:href="#linear-gradient-6"/>
    <linearGradient id="linear-gradient-9" x1="7.3" y1="1061.7" x2="5.9" y2="1068.8" gradientTransform="translate(-99.2 54096.1) scale(50.1 -50.1)" gradientUnits="userSpaceOnUse">
      <stop offset="0" stop-color="#093e3c" stop-opacity="0"/>
      <stop offset=".2" stop-color="#093e3c" stop-opacity=".1"/>
      <stop offset=".6" stop-color="#093e3c" stop-opacity=".6"/>
      <stop offset=".8" stop-color="#093e3c" stop-opacity=".9"/>
      <stop offset="1" stop-color="#093e3c"/>
    </linearGradient>
  </defs>
  <g>
    <path class="cls-10" d="M822.4,514.2c0-46.1,34.6-76,77.1-76s47.4,13.7,59.3,30.6l-21.2,11.9c-7.7-11-21.6-19.6-38.1-19.6-29.1,0-50.7,22.3-50.7,53.1s21.6,53.3,50.7,53.3,28.2-7.1,34.8-13.2v-22.9h-43.9v-22.7h69.7v55.1c-14.5,16.1-35,26.7-60.6,26.7-42.5,0-77.1-30.2-77.1-76.3Z"/>
    <path class="cls-10" d="M987,587.6v-147h25.8v124.3h64.8v22.7h-90.6Z"/>
    <path class="cls-10" d="M1087.8,514.2c0-43.9,31.1-76,75.2-76s75.2,32.2,75.2,76-31.1,76-75.2,76-75.2-32.2-75.2-76ZM1211.6,514.2c0-30.4-19.2-53.1-48.7-53.1s-48.7,22.7-48.7,53.1,19,53.1,48.7,53.1,48.7-22.9,48.7-53.1Z"/>
    <path class="cls-10" d="M1263,587.6v-147h72.3c26.9,0,41.9,16.8,41.9,37.5s-11.9,30.9-25.6,33.7c15.6,2.4,28.4,18.1,28.4,36.1s-15.2,39.7-42.8,39.7h-74.3ZM1350.7,482.5c0-11-7.5-19.2-20.7-19.2h-41.2v38.1h41.2c13.2,0,20.7-7.9,20.7-19ZM1353.6,544.4c0-11-7.7-20.3-22.5-20.3h-42.3v40.8h42.3c14.1,0,22.5-7.7,22.5-20.5Z"/>
    <path class="cls-10" d="M1508.8,587.6l-10.8-28.2h-67.4l-10.8,28.2h-29.3l57.7-147h32.2l57.7,147h-29.3ZM1464.2,466.6l-26.4,70.1h52.9l-26.4-70.1Z"/>
    <path class="cls-10" d="M1554.2,587.6v-147h25.8v124.3h64.8v22.7h-90.6Z"/>
    <path class="cls-10" d="M829,797.8v-147h100.7v22.7h-74.9v38.1h73.4v22.7h-73.4v63.5h-25.8Z"/>
    <path class="cls-10" d="M1047,797.8l-10.8-28.2h-67.4l-10.8,28.2h-29.3l57.7-147h32.2l57.7,147h-29.3ZM1002.4,676.8l-26.4,70.1h52.9l-26.4-70.1Z"/>
    <path class="cls-10" d="M1092.4,797.8v-147h72.3c26.9,0,41.9,16.8,41.9,37.5s-11.9,30.9-25.6,33.7c15.6,2.4,28.4,18.1,28.4,36.1s-15.2,39.7-42.8,39.7h-74.3ZM1180.1,692.6c0-11-7.5-19.2-20.7-19.2h-41.2v38.1h41.2c13.2,0,20.7-7.9,20.7-19ZM1183,754.6c0-11-7.7-20.3-22.5-20.3h-42.3v40.8h42.3c14.1,0,22.5-7.7,22.5-20.5Z"/>
    <path class="cls-10" d="M1319.2,797.8l-32.6-54.9h-25.6v54.9h-25.8v-147h64.6c29.1,0,48.1,19,48.1,46.1s-17.2,40.3-34.8,43.2l35.9,57.7h-29.8ZM1321.4,696.8c0-14.1-10.6-23.4-25.1-23.4h-35.3v46.7h35.3c14.5,0,25.1-9.3,25.1-23.4Z"/>
    <path class="cls-10" d="M1373.6,797.8v-147h25.8v147h-25.8Z"/>
    <path class="cls-10" d="M1424.1,724.4c0-45.2,33.7-76,77.1-76s48.1,15.4,59.1,33.1l-22,11.2c-7.1-12.1-21.2-21.4-37-21.4-29.1,0-50.7,22.3-50.7,53.1s21.6,53.1,50.7,53.1,30-9,37-21.4l22,11.2c-11.2,17.6-29.3,33.1-59.1,33.1-43.4,0-77.1-30.9-77.1-76Z"/>
    <path class="cls-10" d="M822.4,934.5c0-45.2,33.7-76,77.1-76s48.1,15.4,59.1,33.1l-22,11.2c-7.1-12.1-21.2-21.4-37-21.4-29.1,0-50.7,22.3-50.7,53.1s21.6,53.1,50.7,53.1,30-9,37-21.4l22,11.2c-11.2,17.6-29.3,33.1-59.1,33.1-43.4,0-77.1-30.9-77.1-76Z"/>
    <path class="cls-10" d="M972.7,934.5c0-43.9,31.1-76,75.2-76s75.2,32.2,75.2,76-31.1,76-75.2,76-75.2-32.2-75.2-76ZM1096.6,934.5c0-30.4-19.2-53.1-48.7-53.1s-48.7,22.7-48.7,53.1,19,53.1,48.7,53.1,48.7-22.9,48.7-53.1Z"/>
    <path class="cls-10" d="M1274.9,1007.9v-109.1l-45.2,109.1h-11l-45-109.1v109.1h-25.8v-147h36.4l39.9,96.8,40.1-96.8h36.4v147h-25.8Z"/>
    <path class="cls-10" d="M1458.9,1007.9v-109.1l-45.2,109.1h-11l-45-109.1v109.1h-25.8v-147h36.4l39.9,96.8,40.1-96.8h36.4v147h-25.8Z"/>
    <path class="cls-10" d="M1516,950v-89h26v88.2c0,23.4,13,38.6,37.7,38.6s37.5-15.2,37.5-38.6v-88.2h26v88.8c0,36.6-20.9,60.8-63.5,60.8s-63.7-24.5-63.7-60.6Z"/>
    <path class="cls-10" d="M1777,1007.9l-76.7-104.9v104.9h-25.8v-147h26.5l75.2,102.1v-102.1h25.8v147h-24.9Z"/>
    <path class="cls-10" d="M1833.2,1007.9v-147h25.8v147h-25.8Z"/>
    <path class="cls-10" d="M1925.4,1007.9v-124.3h-44.5v-22.7h114.8v22.7h-44.5v124.3h-25.8Z"/>
    <path class="cls-10" d="M2059.2,1007.9v-61.1l-57.1-86h29.5l40.6,63,40.1-63h29.5l-56.9,86v61.1h-25.8Z"/>
  </g>
  <g id="layer1">
    <g id="g968">
      <path id="path824" class="cls-3" d="M62.7,710.7l-14.6,53.6c-5.5,17.1-13.1,42.3-17.2,64.7-27.5,72.7,9.1,153.8,81.8,181.3,11,4.2,22.4,6.9,34.1,8.2,19.8,2.9,42.1,2.8,67.2-.9l115.3-15.9c29-4,52.8-24.9,60.5-53.1l79.3-291.3-406.3,53.5Z"/>
      <path id="path826" class="cls-7" d="M175.1,724.4c-121.5,18.8-146.4,110.5-146.4,110.5l116.3-427.6,607.9-82.3-82.9,301.1c-4.3,16.1-17.9,28.6-34.7,31.1l-3.4.5-460.3,67.1,3.4-.6h0Z"/>
      <path id="path828" class="cls-1" d="M175.1,724.4c-121.5,18.8-146.4,110.5-146.4,110.5l116.3-427.6,607.9-82.3-82.9,301.1c-4.3,16.1-17.9,28.6-34.7,31.1l-3.4.5-460.3,67.1,3.4-.6h0Z"/>
      <path id="path830" class="cls-6" d="M244,451.7l673-99.4c15.9-2.2,28.9-13.8,33.1-29.3l69.5-251.3c5.9-21.2-6.4-43.2-27.6-49.1-5.2-1.4-10.6-1.8-15.9-1.1L333.9,116.4c-69.4,11.2-125.8,61.9-144.4,129.7l-92.6,335.6c18.6-67.8,30-108.8,147.1-130h0Z"/>
      <path id="path832" class="cls-9" d="M244,451.7l673-99.4c15.9-2.2,28.9-13.8,33.1-29.3l69.5-251.3c5.9-21.2-6.4-43.2-27.6-49.1-5.2-1.4-10.6-1.8-15.9-1.1L333.9,116.4c-69.4,11.2-125.8,61.9-144.4,129.7l-92.6,335.6c18.6-67.8,30-108.8,147.1-130h0Z"/>
      <path id="path834" class="cls-4" d="M244,451.7l673-99.4c15.9-2.2,28.9-13.8,33.1-29.3l69.5-251.3c5.9-21.2-6.4-43.2-27.6-49.1-5.2-1.4-10.6-1.8-15.9-1.1L333.9,116.4c-69.4,11.2-125.8,61.9-144.4,129.7l-92.6,335.6c18.6-67.8,30-108.8,147.1-130h0Z"/>
      <path id="path836" class="cls-8" d="M244,451.7c-97.5,17.7-121.7,49.1-137.8,98.2L28.7,835s24.8-90.7,144.8-110.1l458.5-66.8,3.4-.6c16.7-2.6,30.3-14.8,34.6-31.1l68.2-247.7-494.2,73h0Z"/>
      <path id="path838" class="cls-2" d="M244,451.7c-97.5,17.7-121.7,49.1-137.8,98.2L28.7,835s24.8-90.7,144.8-110.1l458.5-66.8,3.4-.6c16.7-2.6,30.3-14.8,34.6-31.1l68.2-247.7-494.2,73h0Z"/>
      <path id="path840" class="cls-5" d="M173.5,724.9c-101.4,16.4-134.7,83.5-142.7,104-27.5,72.6,9,153.9,81.7,181.4,11,4.2,22.5,6.9,34.2,8.3,19.8,2.9,42.1,2.7,67.2-1l115.3-15.9c29-4,52.8-24.9,60.5-53.1l72.3-265.6-288.5,42Z"/>
    </g>
  </g>
</svg>